<svg xmlns="http://www.w3.org/2000/svg" viewBox="0 0 400 400">
  <defs>
    <linearGradient id="dropGradient" x1="0%" y1="0%" x2="0%" y2="100%">
      <stop offset="0%" style="stop-color:#7DD3FC;stop-opacity:1" />
      <stop offset="100%" style="stop-color:#0EA5E9;stop-opacity:1" />
    </linearGradient>
  </defs>
  
  <!-- Drop shape -->
  <path d="M200 50 C200 50, 280 140, 280 220 C280 276.274, 243.137 320, 200 320 C156.863 320, 120 276.274, 120 220 C120 140, 200 50, 200 50 Z" 
        fill="url(#dropGradient)"/>
  
  <!-- Highlight -->
  <ellipse cx="170" cy="130" rx="30" ry="60" fill="rgba(255,255,255,0.3)" transform="rotate(-20 170 130)"/>
  
  <!-- Smile -->
  <path d="M 160 220 Q 200 245 240 220" stroke="#1E40AF" stroke-width="12" fill="none" stroke-linecap="round"/>
  
  <!-- Left eye -->
  <path d="M 160 180 Q 175 170 190 180" stroke="#1E40AF" stroke-width="12" fill="none" stroke-linecap="round"/>
  
  <!-- Right eye -->
  <path d="M 210 180 Q 225 170 240 180" stroke="#1E40AF" stroke-width="12" fill="none" stroke-linecap="round"/>
  
  <!-- Splash effect (optional) -->
  <ellipse cx="140" cy="330" rx="50" ry="15" fill="rgba(125,211,252,0.4)"/>
  <ellipse cx="260" cy="330" rx="50" ry="15" fill="rgba(125,211,252,0.4)"/>
</svg>